HIERARCHY
ROOT Hips
{
 OFFSET 0.000000 0.000000 0.000000
 CHANNELS 6 Xposition Yposition Zposition Yrotation Xrotation Zrotation
 JOINT Chest
 {
  OFFSET 0.000000 9.585900 0.002600
  CHANNELS 3 Yrotation Xrotation Zrotation
  JOINT Chest2
  {
   OFFSET 0.000000 9.601200 -0.005300
   CHANNELS 3 Yrotation Xrotation Zrotation
   JOINT Chest3
   {
    OFFSET 0.000000 9.561800 0.000000
    CHANNELS 3 Yrotation Xrotation Zrotation
    JOINT Chest4
    {
     OFFSET 0.000000 9.552100 0.000000
     CHANNELS 3 Yrotation Xrotation Zrotation
     JOINT Neck
     {
      OFFSET 0.000000 14.453000 0.000000
      CHANNELS 3 Yrotation Xrotation Zrotation
      JOINT Head
      {
       OFFSET 0.000000 8.936500 -0.011300
       CHANNELS 3 Yrotation Xrotation Zrotation
       End Site
       {
        OFFSET 0.000000 17.073600 -0.006000
       }
      }
     }
     JOINT RightCollar
     {
      OFFSET -2.921100 9.558500 0.000000
      CHANNELS 3 Yrotation Xrotation Zrotation
      JOINT RightShoulder
      {
       OFFSET -13.519700 0.000000 0.000000
       CHANNELS 3 Yrotation Xrotation Zrotation
       JOINT RightElbow
       {
        OFFSET 0.000000 -29.696600 0.000000
        CHANNELS 3 Yrotation Xrotation Zrotation
        JOINT RightWrist
        {
         OFFSET 0.000000 -24.004700 0.000000
         CHANNELS 3 Yrotation Xrotation Zrotation
         End Site
         {
          OFFSET 0.000000 -17.728500 0.000000
         }
        }
       }
      }
     }
     JOINT LeftCollar
     {
      OFFSET 2.921100 9.558500 0.000000
      CHANNELS 3 Yrotation Xrotation Zrotation
      JOINT LeftShoulder
      {
       OFFSET 13.519700 0.000000 0.000000
       CHANNELS 3 Yrotation Xrotation Zrotation
       JOINT LeftElbow
       {
        OFFSET 0.000000 -29.696600 0.000000
        CHANNELS 3 Yrotation Xrotation Zrotation
        JOINT LeftWrist
        {
         OFFSET 0.000000 -24.004700 0.000000
         CHANNELS 3 Yrotation Xrotation Zrotation
         End Site
         {
          OFFSET 0.000000 -17.728500 0.000000
         }
        }
       }
      }
     }
    }
   }
  }
 }
 JOINT RightHip
 {
  OFFSET -7.771700 -0.012900 -0.001300
  CHANNELS 3 Yrotation Xrotation Zrotation
  JOINT RightKnee
  {
   OFFSET 0.000000 -40.869800 0.001200
   CHANNELS 3 Yrotation Xrotation Zrotation
   JOINT RightAnkle
   {
    OFFSET 0.000000 -39.717900 0.002100
    CHANNELS 3 Yrotation Xrotation Zrotation
    JOINT RightToe
    {
     OFFSET 0.000000 -4.965400 11.033500
     CHANNELS 3 Yrotation Xrotation Zrotation
     End Site
     {
      OFFSET 0.000000 -1.423100 5.872300
     }
    }
   }
  }
 }
 JOINT LeftHip
 {
  OFFSET 7.771700 -0.012900 -0.001300
  CHANNELS 3 Yrotation Xrotation Zrotation
  JOINT LeftKnee
  {
   OFFSET 0.000000 -40.869800 0.001200
   CHANNELS 3 Yrotation Xrotation Zrotation
   JOINT LeftAnkle
   {
    OFFSET 0.000000 -39.717900 0.002100
    CHANNELS 3 Yrotation Xrotation Zrotation
    JOINT LeftToe
    {
     OFFSET 0.000000 -4.965400 11.033500
     CHANNELS 3 Yrotation Xrotation Zrotation
     End Site
     {
      OFFSET 0.000000 -1.423100 5.872300
     }
    }
   }
  }
 }
}
MOTION
Frames: 11
Frame Time: 0.008333
-15.360020 58.044537 48.598082 -174.327855 -29.792618 -3.286191 -1.932695 21.220152 3.010587 -0.321083 2.862064 0.296032 -0.512769 4.668919 0.472655 -1.842201 18.168311 1.642394 0.366322 14.907093 -1.972796 1.431234 -8.103443 -3.836600 1.961526 -3.015267 0.432796 21.448354 -23.472768 -22.029170 62.794598 -60.535070 -6.062584 25.839996 -22.416670 -53.320695 -5.476943 -4.628122 -2.097456 -3.236425 -16.792383 -2.593889 -86.366979 -51.306136 49.924501 -11.705716 -17.597437 40.196649 5.673285 -41.276934 -8.922951 -4.260616 67.840065 -5.343801 5.555575 11.177322 9.968441 -0.074270 -7.871377 0.303312 -11.124564 -49.268570 -3.468462 27.901642 65.143182 27.432507 -9.184473 37.775005 3.683127 0.925526 -23.848782 -7.044545
-15.362559 58.045263 48.594735 -174.338678 -29.801888 -3.272290 -1.931565 21.228222 2.997311 -0.317629 2.861582 0.297961 -0.518030 4.662605 0.473487 -1.844262 18.162946 1.644978 0.371511 14.889726 -1.976758 1.438787 -8.102233 -3.846262 1.973402 -3.007410 0.423652 21.439397 -23.469273 -22.025064 62.797545 -60.535445 -6.060350 25.824858 -22.410384 -53.301192 -5.467128 -4.615814 -2.101173 -3.231524 -16.789450 -2.607870 -86.360804 -51.297860 49.919989 -11.704924 -17.601715 40.205757 5.692983 -41.274624 -8.939750 -4.265705 67.857491 -5.352743 5.570824 11.173597 9.980925 -0.081549 -7.879818 0.298607 -11.072208 -49.257282 -3.500076 27.890089 65.151853 27.428423 -9.180938 37.744364 3.704534 0.920838 -23.839562 -7.049702
-15.363409 58.044887 48.593714 -174.339992 -29.794082 -3.274199 -1.934888 21.220297 2.996397 -0.317135 2.860867 0.297641 -0.521049 4.657842 0.473429 -1.838481 18.160868 1.648168 0.372796 14.893890 -1.979150 1.444861 -8.127379 -3.854768 1.981965 -3.004937 0.418208 21.430091 -23.466055 -22.018379 62.777776 -60.520495 -6.033492 25.833876 -22.419196 -53.309004 -5.464706 -4.605611 -2.099570 -3.220253 -16.789369 -2.624466 -86.326796 -51.286991 49.893419 -11.718504 -17.623176 40.209512 5.697405 -41.282620 -8.942964 -4.272640 67.860671 -5.354674 5.575927 11.172687 9.981649 -0.081779 -7.882134 0.297762 -11.050385 -49.261934 -3.510902 27.874741 65.152676 27.427084 -9.180442 37.732038 3.703345 0.931353 -23.842677 -7.050586
-15.362584 58.045072 48.592169 -174.345538 -29.789928 -3.286518 -1.927087 21.216251 3.010810 -0.319115 2.858831 0.297047 -0.521545 4.657964 0.473991 -1.837752 18.155586 1.650647 0.375427 14.886770 -1.983475 1.451332 -8.134719 -3.860597 1.993594 -3.001224 0.411292 21.421765 -23.465662 -22.012374 62.769144 -60.514568 -6.021466 25.832847 -22.419961 -53.306416 -5.457365 -4.597166 -2.103629 -3.206938 -16.787307 -2.638648 -86.333586 -51.277429 49.887623 -11.720807 -17.622363 40.217088 5.707672 -41.280126 -8.935860 -4.281833 67.851620 -5.340781 5.566693 11.178097 9.968603 -0.075068 -7.882638 0.301400 -11.037831 -49.261083 -3.504401 27.887378 65.150728 27.449428 -9.178023 37.715760 3.716417 0.929430 -23.835446 -7.053910
-15.362601 58.045224 48.591143 -174.346875 -29.783519 -3.297538 -1.924558 21.210389 3.021576 -0.321942 2.858765 0.296406 -0.517290 4.657950 0.475153 -1.841799 18.154932 1.653012 0.379260 14.876419 -1.987200 1.457821 -8.154585 -3.868866 2.002337 -3.001476 0.405731 21.426343 -23.478035 -22.017395 62.731950 -60.507058 -5.980217 25.830132 -22.415838 -53.297224 -5.450300 -4.596453 -2.107951 -3.200173 -16.786075 -2.643647 -86.330030 -51.275356 49.878424 -11.717372 -17.618617 40.227430 5.710958 -41.284500 -8.930124 -4.288390 67.851624 -5.335836 5.563541 11.177441 9.968624 -0.070910 -7.883121 0.298672 -11.045332 -49.264424 -3.489336 27.946361 65.143128 27.503844 -9.178573 37.691495 3.730501 0.917745 -23.820436 -7.052595
-15.362954 58.045858 48.589768 -174.346424 -29.781173 -3.309137 -1.924436 21.213118 3.031610 -0.322512 2.858869 0.296842 -0.518311 4.658178 0.475706 -1.845460 18.154956 1.654758 0.377266 14.855472 -1.990611 1.472304 -8.178835 -3.882934 2.019214 -3.006819 0.394861 21.417721 -23.480828 -22.013049 62.700071 -60.502230 -5.940457 25.835973 -22.408981 -53.299751 -5.441359 -4.597800 -2.112115 -3.193428 -16.789127 -2.647958 -86.294380 -51.270295 49.847588 -11.730245 -17.636378 40.231761 5.704449 -41.274147 -8.914405 -4.269978 67.833739 -5.308200 5.544867 11.177766 9.958452 -0.060733 -7.876046 0.300355 -11.038997 -49.260026 -3.488353 27.940864 65.138158 27.510388 -9.174554 37.679550 3.735561 0.916790 -23.811343 -7.054666
-15.365691 58.046581 48.588716 -174.344617 -29.779658 -3.308001 -1.932942 21.218307 3.023790 -0.321331 2.856964 0.298474 -0.524772 4.662192 0.475805 -1.845331 18.153185 1.656786 0.382167 14.839089 -1.995050 1.478673 -8.185799 -3.888768 2.043982 -3.013004 0.386443 21.417367 -23.485212 -22.010522 62.663019 -60.490502 -5.905171 25.828915 -22.406473 -53.298397 -5.431156 -4.602312 -2.114711 -3.184061 -16.785694 -2.653150 -86.283124 -51.267890 49.840971 -11.729393 -17.647226 40.218857 5.710658 -41.272923 -8.924965 -4.249588 67.836398 -5.284778 5.546495 11.171473 9.959639 -0.065135 -7.874874 0.301219 -11.023314 -49.257552 -3.501836 27.931848 65.134126 27.507085 -9.171599 37.671170 3.742772 0.915731 -23.803916 -7.056377
-15.368192 58.047409 48.588002 -174.341780 -29.777823 -3.309041 -1.938614 21.219338 3.020002 -0.325790 2.860337 0.297339 -0.522096 4.659409 0.477807 -1.859416 18.155774 1.660735 0.393665 14.823487 -2.004457 1.484934 -8.192503 -3.893391 2.087021 -3.017062 0.365581 21.405389 -23.495339 -21.998336 62.617572 -60.471721 -5.870113 25.804114 -22.406048 -53.284327 -5.412826 -4.608465 -2.123753 -3.179799 -16.783864 -2.653143 -86.257353 -51.267486 49.823507 -11.711697 -17.648572 40.206181 5.718272 -41.271630 -8.934201 -4.256986 67.837979 -5.284473 5.548534 11.166817 9.960132 -0.064511 -7.873635 0.301117 -11.018331 -49.259185 -3.504278 27.923458 65.135618 27.491261 -9.142717 37.673904 3.777073 0.903187 -23.807310 -7.064554
-15.368756 58.048215 48.587830 -174.335207 -29.773268 -3.323133 -1.944960 21.218077 3.027905 -0.324015 2.859719 0.298112 -0.524707 4.660351 0.478853 -1.861373 18.156191 1.661035 0.395334 14.810241 -2.006921 1.495488 -8.218309 -3.904551 2.104437 -3.018358 0.354497 21.395150 -23.504117 -21.991660 62.577650 -60.459802 -5.821478 25.811308 -22.405818 -53.293445 -5.407107 -4.611504 -2.126714 -3.172418 -16.782793 -2.652156 -86.240947 -51.270486 49.808614 -11.709521 -17.653267 40.198473 5.697840 -41.273625 -8.921975 -4.247967 67.835601 -5.272312 5.551019 11.163982 9.955364 -0.065850 -7.871908 0.300822 -11.043142 -49.263679 -3.477413 27.916439 65.138973 27.476785 -9.144594 37.680245 3.775024 0.903678 -23.812770 -7.060569
-15.370201 58.048983 48.588082 -174.335014 -29.768387 -3.328158 -1.948782 21.215584 3.032386 -0.319874 2.858269 0.296800 -0.529623 4.662039 0.481294 -1.858872 18.155109 1.658632 0.394208 14.798123 -2.006933 1.500589 -8.241503 -3.912425 2.116195 -3.019448 0.346480 21.384103 -23.510964 -21.985622 62.568718 -60.450946 -5.800290 25.808726 -22.401541 -53.300185 -5.405212 -4.614695 -2.123505 -3.161894 -16.779089 -2.649332 -86.243688 -51.280956 49.804795 -11.706472 -17.649858 40.188037 5.682929 -41.277825 -8.911074 -4.245194 67.834008 -5.275340 5.554187 11.162041 9.954268 -0.065948 -7.870649 0.301066 -11.054607 -49.267550 -3.463876 27.910890 65.137119 27.467866 -9.151589 37.688244 3.770710 0.903350 -23.818819 -7.057886
-15.372012 58.048992 48.589876 -174.332445 -29.754288 -3.330666 -1.954187 21.203132 3.034285 -0.323343 2.858380 0.296990 -0.527909 4.662873 0.482940 -1.862818 18.153823 1.660132 0.398918 14.785985 -2.014592 1.502532 -8.265482 -3.923626 2.133094 -3.021829 0.334680 21.372793 -23.512245 -21.981067 62.569075 -60.446117 -5.788962 25.805869 -22.398177 -53.303448 -5.405682 -4.621428 -2.118421 -3.149042 -16.776062 -2.660372 -86.223269 -51.282137 49.782489 -11.711554 -17.651008 40.180656 5.663960 -41.291165 -8.904198 -4.236653 67.831407 -5.275961 5.559744 11.155599 9.952636 -0.065452 -7.864537 0.301478 -11.063787 -49.280776 -3.457131 27.893871 65.129571 27.454418 -9.171821 37.710266 3.755415 0.914485 -23.832308 -7.057973
